<svg id="visual" viewBox="0 0 900 600" width="900" height="600" xmlns="http://www.w3.org/2000/svg" xmlns:xlink="http://www.w3.org/1999/xlink" version="1.1"><g stroke-width="1" stroke-linejoin="bevel"><path d="M514 296L591 308L538 237Z" fill="#a629a6" stroke="#a629a6"></path><path d="M591 308L592 163L538 237Z" fill="#631565" stroke="#631565"></path><path d="M591 308L683 284L592 163Z" fill="#a629a6" stroke="#a629a6"></path><path d="M514 296L515 412L591 308Z" fill="#982599" stroke="#982599"></path><path d="M591 308L625 427L683 284Z" fill="#771b78" stroke="#771b78"></path><path d="M683 284L684 186L592 163Z" fill="#8b218c" stroke="#8b218c"></path><path d="M727 66L570 117L592 163Z" fill="#982599" stroke="#982599"></path><path d="M592 163L570 117L538 237Z" fill="#841f85" stroke="#841f85"></path><path d="M395 186L381 292L514 296Z" fill="#631565" stroke="#631565"></path><path d="M515 412L625 427L591 308Z" fill="#9f279f" stroke="#9f279f"></path><path d="M395 186L514 296L538 237Z" fill="#771b78" stroke="#771b78"></path><path d="M514 296L391 395L515 412Z" fill="#982599" stroke="#982599"></path><path d="M483 107L395 186L538 237Z" fill="#8b218c" stroke="#8b218c"></path><path d="M570 117L483 107L538 237Z" fill="#69176b" stroke="#69176b"></path><path d="M381 292L391 395L514 296Z" fill="#982599" stroke="#982599"></path><path d="M625 427L711 417L683 284Z" fill="#7d1d7e" stroke="#7d1d7e"></path><path d="M683 284L764 223L684 186Z" fill="#771b78" stroke="#771b78"></path><path d="M711 417L762 326L683 284Z" fill="#9f279f" stroke="#9f279f"></path><path d="M762 326L764 223L683 284Z" fill="#7d1d7e" stroke="#7d1d7e"></path><path d="M684 186L727 66L592 163Z" fill="#771b78" stroke="#771b78"></path><path d="M395 186L327 273L381 292Z" fill="#8b218c" stroke="#8b218c"></path><path d="M381 292L327 367L391 395Z" fill="#701972" stroke="#701972"></path><path d="M410 473L515 506L515 412Z" fill="#69176b" stroke="#69176b"></path><path d="M515 412L515 506L625 427Z" fill="#7d1d7e" stroke="#7d1d7e"></path><path d="M625 427L687 534L711 417Z" fill="#912392" stroke="#912392"></path><path d="M711 417L768 371L762 326Z" fill="#771b78" stroke="#771b78"></path><path d="M762 326L900 266L764 223Z" fill="#8b218c" stroke="#8b218c"></path><path d="M391 395L410 473L515 412Z" fill="#912392" stroke="#912392"></path><path d="M299 506L410 473L391 395Z" fill="#771b78" stroke="#771b78"></path><path d="M515 506L621 514L625 427Z" fill="#a629a6" stroke="#a629a6"></path><path d="M711 417L812 474L768 371Z" fill="#9f279f" stroke="#9f279f"></path><path d="M327 273L327 367L381 292Z" fill="#912392" stroke="#912392"></path><path d="M483 107L379 108L395 186Z" fill="#841f85" stroke="#841f85"></path><path d="M395 186L299 203L327 273Z" fill="#a629a6" stroke="#a629a6"></path><path d="M379 108L299 203L395 186Z" fill="#771b78" stroke="#771b78"></path><path d="M327 273L207 305L327 367Z" fill="#9f279f" stroke="#9f279f"></path><path d="M764 223L727 66L684 186Z" fill="#7d1d7e" stroke="#7d1d7e"></path><path d="M570 117L534 0L483 107Z" fill="#701972" stroke="#701972"></path><path d="M483 107L431 0L379 108Z" fill="#841f85" stroke="#841f85"></path><path d="M615 0L534 0L570 117Z" fill="#8b218c" stroke="#8b218c"></path><path d="M727 66L615 0L570 117Z" fill="#841f85" stroke="#841f85"></path><path d="M619 600L687 534L621 514Z" fill="#631565" stroke="#631565"></path><path d="M621 514L687 534L625 427Z" fill="#69176b" stroke="#69176b"></path><path d="M534 0L431 0L483 107Z" fill="#9f279f" stroke="#9f279f"></path><path d="M379 108L285 94L299 203Z" fill="#701972" stroke="#701972"></path><path d="M727 66L688 0L615 0Z" fill="#9f279f" stroke="#9f279f"></path><path d="M764 223L794 69L727 66Z" fill="#631565" stroke="#631565"></path><path d="M727 66L835 0L688 0Z" fill="#912392" stroke="#912392"></path><path d="M900 194L794 69L764 223Z" fill="#631565" stroke="#631565"></path><path d="M687 534L812 474L711 417Z" fill="#701972" stroke="#701972"></path><path d="M900 396L900 266L762 326Z" fill="#69176b" stroke="#69176b"></path><path d="M410 473L503 600L515 506Z" fill="#8b218c" stroke="#8b218c"></path><path d="M515 506L619 600L621 514Z" fill="#631565" stroke="#631565"></path><path d="M386 600L503 600L410 473Z" fill="#841f85" stroke="#841f85"></path><path d="M503 600L619 600L515 506Z" fill="#9f279f" stroke="#9f279f"></path><path d="M687 534L795 600L812 474Z" fill="#841f85" stroke="#841f85"></path><path d="M283 0L285 94L379 108Z" fill="#7d1d7e" stroke="#7d1d7e"></path><path d="M327 367L299 506L391 395Z" fill="#771b78" stroke="#771b78"></path><path d="M204 434L299 506L327 367Z" fill="#701972" stroke="#701972"></path><path d="M207 305L327 273L299 203Z" fill="#912392" stroke="#912392"></path><path d="M619 600L677 600L687 534Z" fill="#841f85" stroke="#841f85"></path><path d="M900 396L762 326L768 371Z" fill="#9f279f" stroke="#9f279f"></path><path d="M285 94L229 162L299 203Z" fill="#9f279f" stroke="#9f279f"></path><path d="M229 162L207 305L299 203Z" fill="#8b218c" stroke="#8b218c"></path><path d="M900 266L900 194L764 223Z" fill="#912392" stroke="#912392"></path><path d="M900 493L900 396L812 474Z" fill="#841f85" stroke="#841f85"></path><path d="M812 474L900 396L768 371Z" fill="#69176b" stroke="#69176b"></path><path d="M299 506L386 600L410 473Z" fill="#982599" stroke="#982599"></path><path d="M207 305L204 434L327 367Z" fill="#631565" stroke="#631565"></path><path d="M299 506L325 600L386 600Z" fill="#a629a6" stroke="#a629a6"></path><path d="M431 0L283 0L379 108Z" fill="#8b218c" stroke="#8b218c"></path><path d="M285 94L199 69L229 162Z" fill="#841f85" stroke="#841f85"></path><path d="M900 194L900 89L794 69Z" fill="#a629a6" stroke="#a629a6"></path><path d="M794 69L835 0L727 66Z" fill="#982599" stroke="#982599"></path><path d="M900 89L835 0L794 69Z" fill="#7d1d7e" stroke="#7d1d7e"></path><path d="M189 600L325 600L299 506Z" fill="#8b218c" stroke="#8b218c"></path><path d="M677 600L795 600L687 534Z" fill="#7d1d7e" stroke="#7d1d7e"></path><path d="M795 600L900 493L812 474Z" fill="#631565" stroke="#631565"></path><path d="M223 0L199 69L285 94Z" fill="#7d1d7e" stroke="#7d1d7e"></path><path d="M86 195L101 328L207 305Z" fill="#701972" stroke="#701972"></path><path d="M80 417L180 491L204 434Z" fill="#912392" stroke="#912392"></path><path d="M101 328L204 434L207 305Z" fill="#631565" stroke="#631565"></path><path d="M204 434L180 491L299 506Z" fill="#69176b" stroke="#69176b"></path><path d="M283 0L223 0L285 94Z" fill="#982599" stroke="#982599"></path><path d="M900 89L900 0L835 0Z" fill="#771b78" stroke="#771b78"></path><path d="M86 195L207 305L229 162Z" fill="#9f279f" stroke="#9f279f"></path><path d="M86 195L229 162L86 129Z" fill="#69176b" stroke="#69176b"></path><path d="M795 600L900 600L900 493Z" fill="#841f85" stroke="#841f85"></path><path d="M86 129L229 162L199 69Z" fill="#912392" stroke="#912392"></path><path d="M180 491L189 600L299 506Z" fill="#631565" stroke="#631565"></path><path d="M77 600L189 600L180 491Z" fill="#7d1d7e" stroke="#7d1d7e"></path><path d="M101 0L86 129L199 69Z" fill="#841f85" stroke="#841f85"></path><path d="M0 370L80 417L101 328Z" fill="#69176b" stroke="#69176b"></path><path d="M101 328L80 417L204 434Z" fill="#7d1d7e" stroke="#7d1d7e"></path><path d="M62 524L80 417L0 539Z" fill="#912392" stroke="#912392"></path><path d="M223 0L101 0L199 69Z" fill="#69176b" stroke="#69176b"></path><path d="M0 266L101 328L86 195Z" fill="#771b78" stroke="#771b78"></path><path d="M80 417L62 524L180 491Z" fill="#701972" stroke="#701972"></path><path d="M0 187L86 195L86 129Z" fill="#a629a6" stroke="#a629a6"></path><path d="M0 187L0 266L86 195Z" fill="#841f85" stroke="#841f85"></path><path d="M0 266L0 370L101 328Z" fill="#982599" stroke="#982599"></path><path d="M0 125L0 187L86 129Z" fill="#8b218c" stroke="#8b218c"></path><path d="M0 539L77 600L62 524Z" fill="#912392" stroke="#912392"></path><path d="M62 524L77 600L180 491Z" fill="#841f85" stroke="#841f85"></path><path d="M0 0L0 125L86 129Z" fill="#982599" stroke="#982599"></path><path d="M0 370L0 539L80 417Z" fill="#841f85" stroke="#841f85"></path><path d="M101 0L0 0L86 129Z" fill="#771b78" stroke="#771b78"></path><path d="M0 539L0 600L77 600Z" fill="#841f85" stroke="#841f85"></path></g></svg>